<svg id="logo-icon-dark" xmlns="http://www.w3.org/2000/svg" viewBox="0 0 76 80" width="76" height="80" data-om-id="699ba234:113"><style>@import url('https://fonts.googleapis.com/css2?family=Space+Grotesk:wght@300;400;700&amp;family=DM+Sans:wght@400;500&amp;display=swap');</style>
        <defs data-om-id="699ba234:114">
          <linearGradient id="gBID" x1="0" y1="0" x2="68" y2="76" gradientUnits="userSpaceOnUse" data-om-id="699ba234:115">
            <stop offset="0%" stop-color="#2563EB" data-om-id="699ba234:116"></stop>
            <stop offset="55%" stop-color="#1D4ED8" data-om-id="699ba234:117"></stop>
            <stop offset="100%" stop-color="#1e3a8a" data-om-id="699ba234:118"></stop>
          </linearGradient>
          <filter id="shBID" x="-25%" y="-15%" width="150%" height="140%" data-om-id="699ba234:119">
            <feDropShadow dx="0" dy="4" stdDeviation="6" flood-color="#29B6D8" flood-opacity="0.5" data-om-id="699ba234:120"></feDropShadow>
          </filter>
          <clipPath id="scBID" data-om-id="699ba234:121">
            <path d="M38 3 L67 14 L67 41 C67 59 54 71 38 75 C22 71 9 59 9 41 L9 14 Z" data-om-id="699ba234:122"></path>
          </clipPath>
        </defs>
        <path d="M38 3 L67 14 L67 41 C67 59 54 71 38 75 C22 71 9 59 9 41 L9 14 Z" fill="url(#gBID)" filter="url(#shBID)" data-om-id="699ba234:123"></path>
        <path d="M38 7 L64 17 L64 41 C64 57 52 68 38 72 C24 68 12 57 12 41 L12 17 Z" fill="none" stroke="white" stroke-opacity="0.15" stroke-width="1" data-om-id="699ba234:124"></path>
        <rect x="36" y="15" width="4" height="46" rx="2" fill="white" opacity="0.92" clip-path="url(#scBID)" data-om-id="699ba234:125"></rect>
        <path d="M38 16 C30 13 24 16 22 20 C26 18 32 18 38 19 C44 18 50 18 54 20 C52 16 46 13 38 16 Z" fill="white" opacity="0.75" data-om-id="699ba234:126"></path>
        <path d="M36 23 C30 25 26 29 30 33 C34 37 30 41 26 43 C22 45 24 51 30 53" fill="none" stroke="#29B6D8" stroke-width="2.2" stroke-linecap="round" data-om-id="699ba234:127"></path>
        <path d="M40 23 C46 25 50 29 46 33 C42 37 46 41 50 43 C54 45 52 51 46 53" fill="none" stroke="#29B6D8" stroke-width="2.2" stroke-linecap="round" data-om-id="699ba234:128"></path>
        <circle cx="38" cy="33" r="3.5" fill="#29B6D8" data-om-id="699ba234:129"></circle>
        <circle cx="38" cy="33" r="2" fill="white" opacity="0.9" data-om-id="699ba234:130"></circle>
        <circle cx="38" cy="58" r="4.5" fill="none" stroke="white" stroke-opacity="0.4" stroke-width="0.8" data-om-id="699ba234:131"></circle>
        <line x1="38" y1="54" x2="38" y2="62" stroke="white" stroke-opacity="0.5" stroke-width="1.2" data-om-id="699ba234:132"></line>
        <line x1="34.1" y1="56" x2="41.9" y2="60" stroke="white" stroke-opacity="0.5" stroke-width="1.2" data-om-id="699ba234:133"></line>
        <line x1="34.1" y1="60" x2="41.9" y2="56" stroke="white" stroke-opacity="0.5" stroke-width="1.2" data-om-id="699ba234:134"></line>
      </svg>